<?xml version="1.0" encoding="utf-8"?>
<!-- Generator: Adobe Illustrator 26.5.0, SVG Export Plug-In . SVG Version: 6.00 Build 0)  -->
<svg version="1.1" id="Laag_1" xmlns="http://www.w3.org/2000/svg" xmlns:xlink="http://www.w3.org/1999/xlink" x="0px" y="0px"
	 viewBox="0 0 389.32 390.15" style="enable-background:new 0 0 389.32 390.15;" xml:space="preserve">
<style type="text/css">
	.st0{fill:#FFFFFF;}
</style>
<g>
	<path class="st0" d="M195.41,121.77c48.26,0,96.52,0,144.78-0.02c1.83,0,3.69-0.08,5.49-0.39c12.36-2.1,21.95-13.84,19.79-27.6
		c-1.94-12.35-11.94-20.69-24.44-20.69c-97.15-0.01-194.3-0.01-291.46,0.01c-1.33,0-2.67,0.07-3.97,0.3
		c-10.21,1.82-17.08,7.68-19.82,17.64c-2.74,9.97,0.21,18.56,8.08,25.27c4.57,3.89,10.02,5.5,16.01,5.5
		C98.38,121.76,146.9,121.77,195.41,121.77z M195.41,219.18c48.26,0,96.52,0,144.78-0.02c1.83,0,3.69-0.08,5.49-0.39
		c12.36-2.1,21.95-13.84,19.79-27.6c-1.94-12.35-11.94-20.69-24.44-20.69c-97.15-0.01-194.3-0.01-291.46,0.01
		c-1.33,0-2.67,0.07-3.97,0.3c-10.21,1.82-17.08,7.68-19.82,17.64c-2.74,9.97,0.21,18.56,8.08,25.27c4.57,3.89,10.02,5.5,16.01,5.5
		C98.39,219.17,146.9,219.18,195.41,219.18z M195.24,316.6c48.32,0,96.64,0,144.97-0.02c1.77,0,3.56-0.09,5.3-0.37
		c12.32-1.97,22.15-13.71,19.95-27.64c-1.95-12.35-11.94-20.67-24.46-20.67c-97.15-0.01-194.3-0.01-291.46,0.01
		c-1.33,0-2.67,0.07-3.97,0.3c-10.21,1.83-17.07,7.7-19.8,17.66c-2.71,9.89,0.18,18.44,7.96,25.14c4.6,3.97,10.1,5.61,16.16,5.6
		C98.34,316.59,146.79,316.6,195.24,316.6z"/>
	<path d="M195.41,121.77c-48.51,0-97.03-0.01-145.54,0.01c-5.99,0-11.45-1.61-16.01-5.5c-7.88-6.71-10.82-15.3-8.08-25.27
		c2.74-9.96,9.61-15.82,19.82-17.64c1.3-0.23,2.65-0.3,3.97-0.3c97.15-0.01,194.3-0.02,291.46-0.01c12.5,0,22.5,8.34,24.44,20.69
		c2.17,13.76-7.43,25.5-19.79,27.6c-1.8,0.31-3.66,0.39-5.49,0.39C291.93,121.77,243.67,121.77,195.41,121.77z"/>
	<path d="M195.41,219.18c-48.51,0-97.03-0.01-145.54,0.01c-5.99,0-11.45-1.61-16.01-5.5c-7.88-6.71-10.82-15.3-8.08-25.27
		c2.74-9.96,9.61-15.82,19.82-17.64c1.3-0.23,2.65-0.3,3.97-0.3c97.15-0.01,194.3-0.02,291.46-0.01c12.5,0,22.5,8.34,24.44,20.69
		c2.17,13.76-7.43,25.5-19.79,27.6c-1.8,0.31-3.66,0.39-5.49,0.39C291.93,219.19,243.67,219.18,195.41,219.18z"/>
	<path d="M195.24,316.6c-48.45,0-96.9-0.01-145.35,0.01c-6.06,0-11.56-1.64-16.16-5.6c-7.78-6.71-10.68-15.25-7.96-25.14
		c2.73-9.96,9.6-15.83,19.8-17.66c1.3-0.23,2.65-0.3,3.97-0.3c97.15-0.01,194.3-0.02,291.46-0.01c12.52,0,22.5,8.32,24.46,20.67
		c2.2,13.93-7.63,25.67-19.95,27.64c-1.74,0.28-3.53,0.37-5.3,0.37C291.89,316.6,243.56,316.6,195.24,316.6z"/>
</g>
</svg>
